<?xml version="1.0" encoding="UTF-8" standalone="no"?>
<svg
   version="1.1"
   id="svg2"
   width="1300.3175"
   height="1193.6508"
   viewBox="0 0 1300.3175 1193.6508"
   xmlns="http://www.w3.org/2000/svg">
  <defs id="defs2" />
  <g id="g2">
    <path
       style="fill:#1b856f;stroke-width:2.53968"
       d="M 630.96561,986.96754 C 603.93378,961.91568 563.95829,919.24013 522.97172,871.67936 506.11925,852.12381 490.55966,835.0688 488.39483,833.77933 c -5.99893,-3.57321 -160.71134,-5.30959 -167.1276,-1.87574 -4.57833,2.45026 -5.46105,6.19376 -7.08759,30.0573 -1.97366,28.95601 -4.68675,36.18169 -15.4222,41.07306 -4.33028,1.97303 -27.77051,2.92803 -71.71041,2.92163 -60.41294,-0.008 -65.88732,-0.38141 -73.46313,-5.00058 -4.5022,-2.7451 -9.07363,-8.1694 -10.15874,-12.054 -1.0851,-3.88459 -1.926,-60.20576 -1.86866,-125.15814 0.1024,-115.98891 0.20871,-118.43383 5.96078,-137.07881 8.08745,-26.21496 16.02557,-40.93626 30.97586,-57.44488 7.02983,-7.76256 12.4217,-15.98207 11.98194,-18.26555 -0.54154,-2.81201 -5.41338,-5.07604 -15.09715,-7.0159 -16.90754,-3.38694 -35.27656,-13.52454 -41.37741,-22.8356 -10.69648,-16.3249 -6.22573,-37.74748 9.42786,-45.1756 11.63229,-5.51987 55.04735,-5.69676 77.87047,-0.31725 20.40272,4.80901 18.90396,6.1701 43.47932,-39.48546 22.99268,-42.71528 34.10537,-59.30692 48.78578,-72.83884 18.2289,-16.80281 35.61696,-24.26626 66.61846,-28.59451 25.8172,-3.60444 165.79175,-14.97463 195.55556,-15.88505 l 25.39683,-0.77684 1.81067,28.98527 c 0.99586,15.94189 2.85183,30.02644 4.12439,31.29899 1.39185,1.39185 8.19261,1.22695 17.06847,-0.41384 43.91495,-8.11812 104.67696,1.45247 152.10169,23.95746 21.48623,10.19609 57.66355,37.37903 76.75526,57.67244 23.61084,25.09696 43.80193,62.20848 54.84226,100.80083 7.60429,26.58146 8.08048,89.11236 0.8818,115.79409 -13.26458,49.1648 -45.78298,103.23032 -109.21801,181.5873 -36.85793,45.52813 -136.48379,149.84129 -143.10817,149.84129 -1.76866,0 -13.21107,-9.26321 -25.42755,-20.58486 z M 672.10539,855.80635 C 734.19141,788.14105 791.09653,709.17 805.49034,670.6991 c 26.83923,-71.73428 -5.71592,-149.60419 -77.31229,-184.92623 -23.13734,-11.4148 -45.6388,-16.55812 -72.44007,-16.55812 -27.04491,0 -48.75036,5.03741 -72.01545,16.71335 -36.93821,18.53798 -58.83977,39.83748 -75.44429,73.37031 -25.28143,51.0558 -18.14659,101.34093 23.09232,162.75093 39.21178,58.39137 114.17709,145.8205 125.03246,145.8205 2.54847,0 9.61452,-5.42857 15.70237,-12.06349 z M 333.52143,707.86984 c 10.37831,0 19.99843,-10.03264 19.98014,-20.83695 -0.0229,-14.00628 -4.77277,-26.64125 -11.72604,-31.19721 -3.61148,-2.36632 -26.51528,-9.39596 -50.89732,-15.62143 -68.7876,-17.56353 -80.87948,-14.87734 -83.91895,18.64254 -1.52773,16.84802 1.90492,30.7892 9.20847,37.39883 2.57565,2.33092 11.9612,5.34042 20.85677,6.68777 19.21284,2.91002 80.75814,7.09478 85.58785,5.81953 1.86027,-0.4912 6.76937,-0.89308 10.90908,-0.89308 z"
       id="path190" />
    <path
       style="fill:#207968;stroke-width:2.53968"
       d="m 606.64924,961.20317 c -45.77506,-45.8964 -63.75807,-66.34689 -53.51571,-60.85869 2.65465,1.42248 11.11238,9.62895 18.79492,18.23665 27.8734,31.22997 75.18166,78.15004 80.49791,79.83736 4.31992,1.3711 9.4211,-1.74009 24.69554,-15.06166 10.58806,-9.23434 19.26542,-17.568 19.28305,-18.51929 0.0178,-0.95129 6.58905,-7.40455 14.60317,-14.34063 l 14.57113,-12.61099 -11.42184,12.61099 c -18.57679,20.51091 -56.2921,57.05549 -58.88331,57.05549 -1.31901,0 -23.2002,-20.85716 -48.62486,-46.34923 z"
       id="path188" />
  </g>
</svg>
